<mxfile host="app.diagrams.net" modified="2024-01-27T18:45:42.001Z" agent="Mozilla/5.0 (X11; Ubuntu; Linux x86_64; rv:122.0) Gecko/20100101 Firefox/122.0" etag="jtMimfZxT2UMZHGQcVmC" version="23.0.1" type="device">
  <diagram name="Page-1" id="6133507b-19e7-1e82-6fc7-422aa6c4b21f">
    <mxGraphModel dx="2454" dy="886" grid="1" gridSize="10" guides="1" tooltips="1" connect="1" arrows="1" fold="1" page="1" pageScale="1" pageWidth="1100" pageHeight="850" background="none" math="0" shadow="0">
      <root>
        <mxCell id="0" />
        <mxCell id="1" parent="0" />
        <mxCell id="235556782a83e6d0-1" value="Commercant" style="swimlane;html=1;fontStyle=1;align=center;verticalAlign=top;childLayout=stackLayout;horizontal=1;startSize=26;horizontalStack=0;resizeParent=1;resizeLast=0;collapsible=1;marginBottom=0;swimlaneFillColor=#ffffff;rounded=0;shadow=0;comic=0;labelBackgroundColor=none;strokeWidth=1;fillColor=none;fontFamily=Verdana;fontSize=12" parent="1" vertex="1">
          <mxGeometry x="110" y="231" width="160" height="86" as="geometry" />
        </mxCell>
        <mxCell id="235556782a83e6d0-2" value="- boisson: Boisson = The" style="text;html=1;strokeColor=none;fillColor=none;align=left;verticalAlign=top;spacingLeft=4;spacingRight=4;whiteSpace=wrap;overflow=hidden;rotatable=0;points=[[0,0.5],[1,0.5]];portConstraint=eastwest;" parent="235556782a83e6d0-1" vertex="1">
          <mxGeometry y="26" width="160" height="26" as="geometry" />
        </mxCell>
        <mxCell id="235556782a83e6d0-6" value="" style="line;html=1;strokeWidth=1;fillColor=none;align=left;verticalAlign=middle;spacingTop=-1;spacingLeft=3;spacingRight=3;rotatable=0;labelPosition=right;points=[];portConstraint=eastwest;" parent="235556782a83e6d0-1" vertex="1">
          <mxGeometry y="52" width="160" height="8" as="geometry" />
        </mxCell>
        <mxCell id="235556782a83e6d0-7" value="+ faireAffaire(Humain): int" style="text;html=1;strokeColor=none;fillColor=none;align=left;verticalAlign=top;spacingLeft=4;spacingRight=4;whiteSpace=wrap;overflow=hidden;rotatable=0;points=[[0,0.5],[1,0.5]];portConstraint=eastwest;" parent="235556782a83e6d0-1" vertex="1">
          <mxGeometry y="60" width="160" height="26" as="geometry" />
        </mxCell>
        <mxCell id="78961159f06e98e8-17" value="Histoire" style="swimlane;html=1;fontStyle=1;align=center;verticalAlign=top;childLayout=stackLayout;horizontal=1;startSize=32;horizontalStack=0;resizeParent=1;resizeLast=0;collapsible=1;marginBottom=0;swimlaneFillColor=#ffffff;rounded=0;shadow=0;comic=0;labelBackgroundColor=none;strokeWidth=1;fillColor=none;fontFamily=Verdana;fontSize=12" parent="1" vertex="1">
          <mxGeometry x="30" y="10" width="130" height="52" as="geometry" />
        </mxCell>
        <mxCell id="3wuCrqdSIW8V75h_51YB-8" value="1" style="endArrow=none;endSize=12;startArrow=diamondThin;startSize=14;startFill=0;edgeStyle=orthogonalEdgeStyle;align=left;verticalAlign=bottom;rounded=0;endFill=0;anchorPointDirection=0;html=1;exitX=1.029;exitY=0.509;exitDx=0;exitDy=0;exitPerimeter=0;entryX=0;entryY=0.317;entryDx=0;entryDy=0;entryPerimeter=0;" parent="1" source="78961159f06e98e8-17" target="3wuCrqdSIW8V75h_51YB-24" edge="1">
          <mxGeometry x="-1" y="3" relative="1" as="geometry">
            <mxPoint x="180" y="35.7" as="sourcePoint" />
            <mxPoint x="380" y="36" as="targetPoint" />
          </mxGeometry>
        </mxCell>
        <mxCell id="3wuCrqdSIW8V75h_51YB-17" value="*" style="edgeLabel;html=1;align=center;verticalAlign=middle;resizable=0;points=[];fontSize=15;labelBackgroundColor=none;" parent="3wuCrqdSIW8V75h_51YB-8" vertex="1" connectable="0">
          <mxGeometry x="0.7936" y="-1" relative="1" as="geometry">
            <mxPoint x="3" y="-7" as="offset" />
          </mxGeometry>
        </mxCell>
        <mxCell id="3wuCrqdSIW8V75h_51YB-24" value="&lt;p style=&quot;margin:0px;margin-top:4px;text-align:center;&quot;&gt;&lt;i&gt;&amp;lt;&amp;lt;abstract&amp;gt;&amp;gt;&lt;/i&gt;&lt;/p&gt;&lt;p style=&quot;margin:0px;margin-top:4px;text-align:center;&quot;&gt;&lt;b&gt;Personnage&lt;/b&gt;&lt;br&gt;&lt;/p&gt;&lt;hr size=&quot;1&quot;&gt;&lt;p style=&quot;margin:0px;margin-left:4px;&quot;&gt;- nom: string&lt;br&gt;&lt;/p&gt;" style="verticalAlign=top;align=left;overflow=fill;fontSize=12;fontFamily=Helvetica;html=1;rounded=0;shadow=0;comic=0;labelBackgroundColor=none;strokeWidth=1" parent="1" vertex="1">
          <mxGeometry x="420" y="10" width="190" height="82" as="geometry" />
        </mxCell>
        <mxCell id="3wuCrqdSIW8V75h_51YB-25" value="Animal" style="swimlane;html=1;fontStyle=1;align=center;verticalAlign=top;childLayout=stackLayout;horizontal=1;startSize=26;horizontalStack=0;resizeParent=1;resizeLast=0;collapsible=1;marginBottom=0;swimlaneFillColor=#ffffff;rounded=0;shadow=0;comic=0;labelBackgroundColor=none;strokeWidth=1;fillColor=none;fontFamily=Verdana;fontSize=12" parent="1" vertex="1">
          <mxGeometry x="890" y="8" width="160" height="84" as="geometry" />
        </mxCell>
        <mxCell id="3wuCrqdSIW8V75h_51YB-29" value="" style="line;html=1;strokeWidth=1;fillColor=none;align=left;verticalAlign=middle;spacingTop=-1;spacingLeft=3;spacingRight=3;rotatable=0;labelPosition=right;points=[];portConstraint=eastwest;" parent="3wuCrqdSIW8V75h_51YB-25" vertex="1">
          <mxGeometry y="26" width="160" height="58" as="geometry" />
        </mxCell>
        <mxCell id="3wuCrqdSIW8V75h_51YB-39" style="edgeStyle=orthogonalEdgeStyle;rounded=0;orthogonalLoop=1;jettySize=auto;html=1;endArrow=block;endFill=0;" parent="1" source="3wuCrqdSIW8V75h_51YB-25" target="3wuCrqdSIW8V75h_51YB-24" edge="1">
          <mxGeometry relative="1" as="geometry">
            <Array as="points" />
            <mxPoint x="850" y="80" as="sourcePoint" />
            <mxPoint x="620.0000000000002" y="50" as="targetPoint" />
          </mxGeometry>
        </mxCell>
        <mxCell id="3wuCrqdSIW8V75h_51YB-43" value="Humain" style="swimlane;html=1;fontStyle=1;align=center;verticalAlign=top;childLayout=stackLayout;horizontal=1;startSize=26;horizontalStack=0;resizeParent=1;resizeLast=0;collapsible=1;marginBottom=0;swimlaneFillColor=#ffffff;rounded=0;shadow=0;comic=0;labelBackgroundColor=none;strokeWidth=1;fillColor=none;fontFamily=Verdana;fontSize=12" parent="1" vertex="1">
          <mxGeometry x="620" y="180" width="160" height="188" as="geometry" />
        </mxCell>
        <mxCell id="3wuCrqdSIW8V75h_51YB-46" value="- boisson: Boisson" style="text;html=1;strokeColor=none;fillColor=none;align=left;verticalAlign=top;spacingLeft=4;spacingRight=4;whiteSpace=wrap;overflow=hidden;rotatable=0;points=[[0,0.5],[1,0.5]];portConstraint=eastwest;" parent="3wuCrqdSIW8V75h_51YB-43" vertex="1">
          <mxGeometry y="26" width="160" height="14" as="geometry" />
        </mxCell>
        <mxCell id="3wuCrqdSIW8V75h_51YB-47" value="- argent: int" style="text;html=1;strokeColor=none;fillColor=none;align=left;verticalAlign=top;spacingLeft=4;spacingRight=4;whiteSpace=wrap;overflow=hidden;rotatable=0;points=[[0,0.5],[1,0.5]];portConstraint=eastwest;" parent="3wuCrqdSIW8V75h_51YB-43" vertex="1">
          <mxGeometry y="40" width="160" height="26" as="geometry" />
        </mxCell>
        <mxCell id="3wuCrqdSIW8V75h_51YB-44" value="" style="line;html=1;strokeWidth=1;fillColor=none;align=left;verticalAlign=middle;spacingTop=-1;spacingLeft=3;spacingRight=3;rotatable=0;labelPosition=right;points=[];portConstraint=eastwest;" parent="3wuCrqdSIW8V75h_51YB-43" vertex="1">
          <mxGeometry y="66" width="160" height="12" as="geometry" />
        </mxCell>
        <mxCell id="3wuCrqdSIW8V75h_51YB-48" value="+ parler(string)" style="text;html=1;strokeColor=none;fillColor=none;align=left;verticalAlign=top;spacingLeft=4;spacingRight=4;whiteSpace=wrap;overflow=hidden;rotatable=0;points=[[0,0.5],[1,0.5]];portConstraint=eastwest;" parent="3wuCrqdSIW8V75h_51YB-43" vertex="1">
          <mxGeometry y="78" width="160" height="22" as="geometry" />
        </mxCell>
        <mxCell id="3wuCrqdSIW8V75h_51YB-52" value="+ direBonjour()" style="text;html=1;strokeColor=none;fillColor=none;align=left;verticalAlign=top;spacingLeft=4;spacingRight=4;whiteSpace=wrap;overflow=hidden;rotatable=0;points=[[0,0.5],[1,0.5]];portConstraint=eastwest;" parent="3wuCrqdSIW8V75h_51YB-43" vertex="1">
          <mxGeometry y="100" width="160" height="22" as="geometry" />
        </mxCell>
        <mxCell id="3wuCrqdSIW8V75h_51YB-53" value="&lt;div&gt;+ boire()&lt;/div&gt;" style="text;html=1;strokeColor=none;fillColor=none;align=left;verticalAlign=top;spacingLeft=4;spacingRight=4;whiteSpace=wrap;overflow=hidden;rotatable=0;points=[[0,0.5],[1,0.5]];portConstraint=eastwest;" parent="3wuCrqdSIW8V75h_51YB-43" vertex="1">
          <mxGeometry y="122" width="160" height="22" as="geometry" />
        </mxCell>
        <mxCell id="3wuCrqdSIW8V75h_51YB-54" value="+ gagnerArgent(int)" style="text;html=1;strokeColor=none;fillColor=none;align=left;verticalAlign=top;spacingLeft=4;spacingRight=4;whiteSpace=wrap;overflow=hidden;rotatable=0;points=[[0,0.5],[1,0.5]];portConstraint=eastwest;" parent="3wuCrqdSIW8V75h_51YB-43" vertex="1">
          <mxGeometry y="144" width="160" height="22" as="geometry" />
        </mxCell>
        <mxCell id="3wuCrqdSIW8V75h_51YB-55" value="+ perdreArgent(int)" style="text;html=1;strokeColor=none;fillColor=none;align=left;verticalAlign=top;spacingLeft=4;spacingRight=4;whiteSpace=wrap;overflow=hidden;rotatable=0;points=[[0,0.5],[1,0.5]];portConstraint=eastwest;" parent="3wuCrqdSIW8V75h_51YB-43" vertex="1">
          <mxGeometry y="166" width="160" height="22" as="geometry" />
        </mxCell>
        <mxCell id="3wuCrqdSIW8V75h_51YB-45" style="edgeStyle=orthogonalEdgeStyle;rounded=0;orthogonalLoop=1;jettySize=auto;html=1;entryX=0.5;entryY=1;entryDx=0;entryDy=0;endArrow=block;endFill=0;" parent="1" source="3wuCrqdSIW8V75h_51YB-43" target="3wuCrqdSIW8V75h_51YB-24" edge="1">
          <mxGeometry relative="1" as="geometry">
            <mxPoint x="210" y="217" as="targetPoint" />
            <Array as="points">
              <mxPoint x="650" y="150" />
              <mxPoint x="515" y="150" />
            </Array>
          </mxGeometry>
        </mxCell>
        <mxCell id="z9h1_I_08Nq4GFGNyh7Q-1" value="&lt;p style=&quot;margin:0px;margin-top:4px;text-align:center;&quot;&gt;&lt;i&gt;&amp;lt;&amp;lt;enum&amp;gt;&amp;gt;&lt;/i&gt;&lt;/p&gt;&lt;p style=&quot;margin:0px;margin-top:4px;text-align:center;&quot;&gt;&lt;b&gt;Boisson&lt;/b&gt;&lt;br&gt;&lt;/p&gt;&lt;hr size=&quot;1&quot;&gt;&lt;p style=&quot;margin:0px;margin-left:4px;&quot;&gt;The&lt;/p&gt;&lt;p style=&quot;margin:0px;margin-left:4px;&quot;&gt;Sake&lt;/p&gt;&lt;p style=&quot;margin:0px;margin-left:4px;&quot;&gt;Biere&lt;/p&gt;" style="verticalAlign=top;align=left;overflow=fill;fontSize=12;fontFamily=Helvetica;html=1;rounded=0;shadow=0;comic=0;labelBackgroundColor=none;strokeWidth=1" vertex="1" parent="1">
          <mxGeometry x="195" y="70" width="190" height="98" as="geometry" />
        </mxCell>
        <mxCell id="z9h1_I_08Nq4GFGNyh7Q-53" style="edgeStyle=orthogonalEdgeStyle;rounded=0;orthogonalLoop=1;jettySize=auto;html=1;entryX=0.498;entryY=0.971;entryDx=0;entryDy=0;entryPerimeter=0;endArrow=none;endFill=0;" edge="1" parent="1" source="z9h1_I_08Nq4GFGNyh7Q-9" target="z9h1_I_08Nq4GFGNyh7Q-21">
          <mxGeometry relative="1" as="geometry">
            <mxPoint x="970" y="440" as="targetPoint" />
            <Array as="points">
              <mxPoint x="440" y="390" />
              <mxPoint x="955" y="390" />
            </Array>
          </mxGeometry>
        </mxCell>
        <mxCell id="z9h1_I_08Nq4GFGNyh7Q-9" value="Yakuza" style="swimlane;html=1;fontStyle=1;align=center;verticalAlign=top;childLayout=stackLayout;horizontal=1;startSize=26;horizontalStack=0;resizeParent=1;resizeLast=0;collapsible=1;marginBottom=0;swimlaneFillColor=#ffffff;rounded=0;shadow=0;comic=0;labelBackgroundColor=none;strokeWidth=1;fillColor=none;fontFamily=Verdana;fontSize=12" vertex="1" parent="1">
          <mxGeometry x="360" y="280" width="160" height="86" as="geometry" />
        </mxCell>
        <mxCell id="z9h1_I_08Nq4GFGNyh7Q-10" value="- reputation: int = 0" style="text;html=1;strokeColor=none;fillColor=none;align=left;verticalAlign=top;spacingLeft=4;spacingRight=4;whiteSpace=wrap;overflow=hidden;rotatable=0;points=[[0,0.5],[1,0.5]];portConstraint=eastwest;" vertex="1" parent="z9h1_I_08Nq4GFGNyh7Q-9">
          <mxGeometry y="26" width="160" height="26" as="geometry" />
        </mxCell>
        <mxCell id="z9h1_I_08Nq4GFGNyh7Q-11" value="" style="line;html=1;strokeWidth=1;fillColor=none;align=left;verticalAlign=middle;spacingTop=-1;spacingLeft=3;spacingRight=3;rotatable=0;labelPosition=right;points=[];portConstraint=eastwest;" vertex="1" parent="z9h1_I_08Nq4GFGNyh7Q-9">
          <mxGeometry y="52" width="160" height="8" as="geometry" />
        </mxCell>
        <mxCell id="z9h1_I_08Nq4GFGNyh7Q-12" value="+ gagnerArgent(int)" style="text;html=1;strokeColor=none;fillColor=none;align=left;verticalAlign=top;spacingLeft=4;spacingRight=4;whiteSpace=wrap;overflow=hidden;rotatable=0;points=[[0,0.5],[1,0.5]];portConstraint=eastwest;" vertex="1" parent="z9h1_I_08Nq4GFGNyh7Q-9">
          <mxGeometry y="60" width="160" height="26" as="geometry" />
        </mxCell>
        <mxCell id="z9h1_I_08Nq4GFGNyh7Q-18" value="Ronin" style="swimlane;html=1;fontStyle=1;align=center;verticalAlign=top;childLayout=stackLayout;horizontal=1;startSize=26;horizontalStack=0;resizeParent=1;resizeLast=0;collapsible=1;marginBottom=0;swimlaneFillColor=#ffffff;rounded=0;shadow=0;comic=0;labelBackgroundColor=none;strokeWidth=1;fillColor=none;fontFamily=Verdana;fontSize=12" vertex="1" parent="1">
          <mxGeometry x="860" y="278" width="190" height="90" as="geometry" />
        </mxCell>
        <mxCell id="z9h1_I_08Nq4GFGNyh7Q-19" value="- honneur: int = 1" style="text;html=1;strokeColor=none;fillColor=none;align=left;verticalAlign=top;spacingLeft=4;spacingRight=4;whiteSpace=wrap;overflow=hidden;rotatable=0;points=[[0,0.5],[1,0.5]];portConstraint=eastwest;" vertex="1" parent="z9h1_I_08Nq4GFGNyh7Q-18">
          <mxGeometry y="26" width="190" height="26" as="geometry" />
        </mxCell>
        <mxCell id="z9h1_I_08Nq4GFGNyh7Q-20" value="" style="line;html=1;strokeWidth=1;fillColor=none;align=left;verticalAlign=middle;spacingTop=-1;spacingLeft=3;spacingRight=3;rotatable=0;labelPosition=right;points=[];portConstraint=eastwest;" vertex="1" parent="z9h1_I_08Nq4GFGNyh7Q-18">
          <mxGeometry y="52" width="190" height="8" as="geometry" />
        </mxCell>
        <mxCell id="z9h1_I_08Nq4GFGNyh7Q-21" value="+ provoquerDuel(Yakuza): Duel" style="text;html=1;strokeColor=none;fillColor=none;align=left;verticalAlign=top;spacingLeft=4;spacingRight=4;whiteSpace=wrap;overflow=hidden;rotatable=0;points=[[0,0.5],[1,0.5]];portConstraint=eastwest;" vertex="1" parent="z9h1_I_08Nq4GFGNyh7Q-18">
          <mxGeometry y="60" width="190" height="30" as="geometry" />
        </mxCell>
        <mxCell id="z9h1_I_08Nq4GFGNyh7Q-26" value="" style="endArrow=none;dashed=1;endFill=0;endSize=12;html=1;rounded=0;startArrow=none;startFill=0;entryX=0.474;entryY=0;entryDx=0;entryDy=0;entryPerimeter=0;" edge="1" parent="1" target="z9h1_I_08Nq4GFGNyh7Q-27">
          <mxGeometry width="160" relative="1" as="geometry">
            <mxPoint x="545" y="390" as="sourcePoint" />
            <mxPoint x="400" y="520" as="targetPoint" />
          </mxGeometry>
        </mxCell>
        <mxCell id="z9h1_I_08Nq4GFGNyh7Q-27" value="Duel" style="swimlane;html=1;fontStyle=1;align=center;verticalAlign=top;childLayout=stackLayout;horizontal=1;startSize=26;horizontalStack=0;resizeParent=1;resizeLast=0;collapsible=1;marginBottom=0;swimlaneFillColor=#ffffff;rounded=0;shadow=0;comic=0;labelBackgroundColor=none;strokeWidth=1;fillColor=none;fontFamily=Verdana;fontSize=12" vertex="1" parent="1">
          <mxGeometry x="455" y="450" width="190" height="86" as="geometry" />
        </mxCell>
        <mxCell id="z9h1_I_08Nq4GFGNyh7Q-35" value="- nombreVictoireYakuza: int = 0" style="text;html=1;strokeColor=none;fillColor=none;align=left;verticalAlign=top;spacingLeft=4;spacingRight=4;whiteSpace=wrap;overflow=hidden;rotatable=0;points=[[0,0.5],[1,0.5]];portConstraint=eastwest;" vertex="1" parent="z9h1_I_08Nq4GFGNyh7Q-27">
          <mxGeometry y="26" width="190" height="26" as="geometry" />
        </mxCell>
        <mxCell id="z9h1_I_08Nq4GFGNyh7Q-28" value="- nombreVictoireRonin: int = 0" style="text;html=1;strokeColor=none;fillColor=none;align=left;verticalAlign=top;spacingLeft=4;spacingRight=4;whiteSpace=wrap;overflow=hidden;rotatable=0;points=[[0,0.5],[1,0.5]];portConstraint=eastwest;" vertex="1" parent="z9h1_I_08Nq4GFGNyh7Q-27">
          <mxGeometry y="52" width="190" height="26" as="geometry" />
        </mxCell>
        <mxCell id="z9h1_I_08Nq4GFGNyh7Q-29" value="" style="line;html=1;strokeWidth=1;fillColor=none;align=left;verticalAlign=middle;spacingTop=-1;spacingLeft=3;spacingRight=3;rotatable=0;labelPosition=right;points=[];portConstraint=eastwest;" vertex="1" parent="z9h1_I_08Nq4GFGNyh7Q-27">
          <mxGeometry y="78" width="190" height="8" as="geometry" />
        </mxCell>
        <mxCell id="z9h1_I_08Nq4GFGNyh7Q-36" value="Clan" style="swimlane;html=1;fontStyle=1;align=center;verticalAlign=top;childLayout=stackLayout;horizontal=1;startSize=32;horizontalStack=0;resizeParent=1;resizeLast=0;collapsible=1;marginBottom=0;swimlaneFillColor=#ffffff;rounded=0;shadow=0;comic=0;labelBackgroundColor=none;strokeWidth=1;fillColor=none;fontFamily=Verdana;fontSize=12" vertex="1" parent="1">
          <mxGeometry x="250" y="408" width="150" height="84" as="geometry" />
        </mxCell>
        <mxCell id="z9h1_I_08Nq4GFGNyh7Q-39" value="- nom: string" style="text;html=1;strokeColor=none;fillColor=none;align=left;verticalAlign=top;spacingLeft=4;spacingRight=4;whiteSpace=wrap;overflow=hidden;rotatable=0;points=[[0,0.5],[1,0.5]];portConstraint=eastwest;" vertex="1" parent="z9h1_I_08Nq4GFGNyh7Q-36">
          <mxGeometry y="32" width="150" height="18" as="geometry" />
        </mxCell>
        <mxCell id="z9h1_I_08Nq4GFGNyh7Q-40" value="- secteur: string" style="text;html=1;strokeColor=none;fillColor=none;align=left;verticalAlign=top;spacingLeft=4;spacingRight=4;whiteSpace=wrap;overflow=hidden;rotatable=0;points=[[0,0.5],[1,0.5]];portConstraint=eastwest;" vertex="1" parent="z9h1_I_08Nq4GFGNyh7Q-36">
          <mxGeometry y="50" width="150" height="20" as="geometry" />
        </mxCell>
        <mxCell id="z9h1_I_08Nq4GFGNyh7Q-43" value="&lt;div&gt;&amp;nbsp;&amp;nbsp; 1&lt;/div&gt;&lt;div&gt;&lt;br&gt;&lt;/div&gt;" style="endArrow=none;endSize=12;startArrow=diamondThin;startSize=14;startFill=0;edgeStyle=orthogonalEdgeStyle;align=left;verticalAlign=bottom;rounded=0;endFill=0;anchorPointDirection=0;html=1;exitX=0.366;exitY=-0.032;exitDx=0;exitDy=0;exitPerimeter=0;entryX=0;entryY=0.75;entryDx=0;entryDy=0;entryPerimeter=0;labelBackgroundColor=none;" edge="1" parent="1" source="z9h1_I_08Nq4GFGNyh7Q-36" target="z9h1_I_08Nq4GFGNyh7Q-11">
          <mxGeometry x="-1" y="3" relative="1" as="geometry">
            <mxPoint x="150" y="540" as="sourcePoint" />
            <mxPoint x="256" y="540" as="targetPoint" />
          </mxGeometry>
        </mxCell>
        <mxCell id="z9h1_I_08Nq4GFGNyh7Q-44" value="*" style="edgeLabel;html=1;align=center;verticalAlign=middle;resizable=0;points=[];fontSize=15;labelBackgroundColor=none;" vertex="1" connectable="0" parent="z9h1_I_08Nq4GFGNyh7Q-43">
          <mxGeometry x="0.7936" y="-1" relative="1" as="geometry">
            <mxPoint x="3" y="12" as="offset" />
          </mxGeometry>
        </mxCell>
        <mxCell id="z9h1_I_08Nq4GFGNyh7Q-45" style="edgeStyle=orthogonalEdgeStyle;rounded=0;orthogonalLoop=1;jettySize=auto;html=1;entryX=-0.025;entryY=0.245;entryDx=0;entryDy=0;entryPerimeter=0;endArrow=block;endFill=0;" edge="1" parent="1" source="235556782a83e6d0-1" target="3wuCrqdSIW8V75h_51YB-46">
          <mxGeometry relative="1" as="geometry" />
        </mxCell>
        <mxCell id="z9h1_I_08Nq4GFGNyh7Q-51" style="edgeStyle=orthogonalEdgeStyle;rounded=0;orthogonalLoop=1;jettySize=auto;html=1;endArrow=block;endFill=0;exitX=0.5;exitY=0;exitDx=0;exitDy=0;entryX=0;entryY=0.333;entryDx=0;entryDy=0;entryPerimeter=0;" edge="1" parent="1" source="z9h1_I_08Nq4GFGNyh7Q-9" target="3wuCrqdSIW8V75h_51YB-44">
          <mxGeometry relative="1" as="geometry">
            <mxPoint x="440" y="260" as="sourcePoint" />
            <mxPoint x="570" y="270" as="targetPoint" />
            <Array as="points">
              <mxPoint x="440" y="250" />
            </Array>
          </mxGeometry>
        </mxCell>
        <mxCell id="z9h1_I_08Nq4GFGNyh7Q-52" style="edgeStyle=orthogonalEdgeStyle;rounded=0;orthogonalLoop=1;jettySize=auto;html=1;endArrow=block;endFill=0;entryX=1.004;entryY=0.603;entryDx=0;entryDy=0;entryPerimeter=0;" edge="1" parent="1" source="z9h1_I_08Nq4GFGNyh7Q-18" target="3wuCrqdSIW8V75h_51YB-44">
          <mxGeometry relative="1" as="geometry">
            <mxPoint x="800" y="350" as="targetPoint" />
          </mxGeometry>
        </mxCell>
        <mxCell id="z9h1_I_08Nq4GFGNyh7Q-54" value="*" style="text;whiteSpace=wrap;html=1;" vertex="1" parent="1">
          <mxGeometry x="445" y="368" width="40" height="40" as="geometry" />
        </mxCell>
        <mxCell id="z9h1_I_08Nq4GFGNyh7Q-55" value="*" style="text;whiteSpace=wrap;html=1;" vertex="1" parent="1">
          <mxGeometry x="940" y="368" width="40" height="40" as="geometry" />
        </mxCell>
        <mxCell id="z9h1_I_08Nq4GFGNyh7Q-68" style="edgeStyle=orthogonalEdgeStyle;rounded=0;orthogonalLoop=1;jettySize=auto;html=1;endArrow=diamondThin;endFill=0;" edge="1" parent="1" source="z9h1_I_08Nq4GFGNyh7Q-61" target="z9h1_I_08Nq4GFGNyh7Q-36">
          <mxGeometry relative="1" as="geometry" />
        </mxCell>
        <mxCell id="z9h1_I_08Nq4GFGNyh7Q-70" value="1" style="edgeLabel;html=1;align=center;verticalAlign=middle;resizable=0;points=[];labelBackgroundColor=none;" vertex="1" connectable="0" parent="z9h1_I_08Nq4GFGNyh7Q-68">
          <mxGeometry x="-0.754" y="2" relative="1" as="geometry">
            <mxPoint x="1" y="14" as="offset" />
          </mxGeometry>
        </mxCell>
        <mxCell id="z9h1_I_08Nq4GFGNyh7Q-69" style="edgeStyle=orthogonalEdgeStyle;rounded=0;orthogonalLoop=1;jettySize=auto;html=1;endArrow=block;endFill=0;" edge="1" parent="1" source="z9h1_I_08Nq4GFGNyh7Q-61" target="z9h1_I_08Nq4GFGNyh7Q-9">
          <mxGeometry relative="1" as="geometry">
            <Array as="points">
              <mxPoint x="100" y="330" />
            </Array>
          </mxGeometry>
        </mxCell>
        <mxCell id="z9h1_I_08Nq4GFGNyh7Q-61" value="Oyabun" style="swimlane;html=1;fontStyle=1;align=center;verticalAlign=top;childLayout=stackLayout;horizontal=1;startSize=26;horizontalStack=0;resizeParent=1;resizeLast=0;collapsible=1;marginBottom=0;swimlaneFillColor=#ffffff;rounded=0;shadow=0;comic=0;labelBackgroundColor=none;strokeWidth=1;fillColor=none;fontFamily=Verdana;fontSize=12" vertex="1" parent="1">
          <mxGeometry x="20" y="415" width="160" height="70" as="geometry" />
        </mxCell>
        <mxCell id="z9h1_I_08Nq4GFGNyh7Q-63" value="" style="line;html=1;strokeWidth=1;fillColor=none;align=left;verticalAlign=middle;spacingTop=-1;spacingLeft=3;spacingRight=3;rotatable=0;labelPosition=right;points=[];portConstraint=eastwest;" vertex="1" parent="z9h1_I_08Nq4GFGNyh7Q-61">
          <mxGeometry y="26" width="160" height="8" as="geometry" />
        </mxCell>
        <mxCell id="z9h1_I_08Nq4GFGNyh7Q-64" value="+ gagnerArgent(int)" style="text;html=1;strokeColor=none;fillColor=none;align=left;verticalAlign=top;spacingLeft=4;spacingRight=4;whiteSpace=wrap;overflow=hidden;rotatable=0;points=[[0,0.5],[1,0.5]];portConstraint=eastwest;" vertex="1" parent="z9h1_I_08Nq4GFGNyh7Q-61">
          <mxGeometry y="34" width="160" height="26" as="geometry" />
        </mxCell>
        <mxCell id="z9h1_I_08Nq4GFGNyh7Q-71" value="1" style="edgeLabel;html=1;align=center;verticalAlign=middle;resizable=0;points=[];labelBackgroundColor=none;" vertex="1" connectable="0" parent="1">
          <mxGeometry x="230.00285714285712" y="459.9999999999999" as="geometry">
            <mxPoint x="10" y="2" as="offset" />
          </mxGeometry>
        </mxCell>
        <mxCell id="z9h1_I_08Nq4GFGNyh7Q-84" style="edgeStyle=orthogonalEdgeStyle;rounded=0;orthogonalLoop=1;jettySize=auto;html=1;endArrow=diamond;endFill=0;" edge="1" parent="1" source="z9h1_I_08Nq4GFGNyh7Q-72">
          <mxGeometry relative="1" as="geometry">
            <mxPoint x="900" y="540" as="targetPoint" />
            <Array as="points">
              <mxPoint x="765" y="540" />
            </Array>
          </mxGeometry>
        </mxCell>
        <mxCell id="z9h1_I_08Nq4GFGNyh7Q-72" value="Samourai" style="swimlane;html=1;fontStyle=1;align=center;verticalAlign=top;childLayout=stackLayout;horizontal=1;startSize=26;horizontalStack=0;resizeParent=1;resizeLast=0;collapsible=1;marginBottom=0;swimlaneFillColor=#ffffff;rounded=0;shadow=0;comic=0;labelBackgroundColor=none;strokeWidth=1;fillColor=none;fontFamily=Verdana;fontSize=12" vertex="1" parent="1">
          <mxGeometry x="670" y="450" width="190" height="60" as="geometry" />
        </mxCell>
        <mxCell id="z9h1_I_08Nq4GFGNyh7Q-74" value="" style="line;html=1;strokeWidth=1;fillColor=none;align=left;verticalAlign=middle;spacingTop=-1;spacingLeft=3;spacingRight=3;rotatable=0;labelPosition=right;points=[];portConstraint=eastwest;" vertex="1" parent="z9h1_I_08Nq4GFGNyh7Q-72">
          <mxGeometry y="26" width="190" height="8" as="geometry" />
        </mxCell>
        <mxCell id="z9h1_I_08Nq4GFGNyh7Q-87" value="+ boire(Boisson)" style="text;html=1;strokeColor=none;fillColor=none;align=left;verticalAlign=top;spacingLeft=4;spacingRight=4;whiteSpace=wrap;overflow=hidden;rotatable=0;points=[[0,0.5],[1,0.5]];portConstraint=eastwest;" vertex="1" parent="z9h1_I_08Nq4GFGNyh7Q-72">
          <mxGeometry y="34" width="190" height="20" as="geometry" />
        </mxCell>
        <mxCell id="z9h1_I_08Nq4GFGNyh7Q-83" style="edgeStyle=orthogonalEdgeStyle;rounded=0;orthogonalLoop=1;jettySize=auto;html=1;entryX=1;entryY=0.5;entryDx=0;entryDy=0;endArrow=block;endFill=0;" edge="1" parent="1" source="z9h1_I_08Nq4GFGNyh7Q-76" target="3wuCrqdSIW8V75h_51YB-46">
          <mxGeometry relative="1" as="geometry">
            <Array as="points">
              <mxPoint x="1070" y="213" />
            </Array>
          </mxGeometry>
        </mxCell>
        <mxCell id="z9h1_I_08Nq4GFGNyh7Q-76" value="Seigneur" style="swimlane;html=1;fontStyle=1;align=center;verticalAlign=top;childLayout=stackLayout;horizontal=1;startSize=26;horizontalStack=0;resizeParent=1;resizeLast=0;collapsible=1;marginBottom=0;swimlaneFillColor=#ffffff;rounded=0;shadow=0;comic=0;labelBackgroundColor=none;strokeWidth=1;fillColor=none;fontFamily=Verdana;fontSize=12" vertex="1" parent="1">
          <mxGeometry x="900" y="427.5" width="190" height="120" as="geometry" />
        </mxCell>
        <mxCell id="z9h1_I_08Nq4GFGNyh7Q-78" value="- quantiteArgent: int = infini" style="text;html=1;strokeColor=none;fillColor=none;align=left;verticalAlign=top;spacingLeft=4;spacingRight=4;whiteSpace=wrap;overflow=hidden;rotatable=0;points=[[0,0.5],[1,0.5]];portConstraint=eastwest;" vertex="1" parent="z9h1_I_08Nq4GFGNyh7Q-76">
          <mxGeometry y="26" width="190" height="26" as="geometry" />
        </mxCell>
        <mxCell id="z9h1_I_08Nq4GFGNyh7Q-77" value="" style="line;html=1;strokeWidth=1;fillColor=none;align=left;verticalAlign=middle;spacingTop=-1;spacingLeft=3;spacingRight=3;rotatable=0;labelPosition=right;points=[];portConstraint=eastwest;" vertex="1" parent="z9h1_I_08Nq4GFGNyh7Q-76">
          <mxGeometry y="52" width="190" height="8" as="geometry" />
        </mxCell>
        <mxCell id="z9h1_I_08Nq4GFGNyh7Q-79" value="+ puissance(): int" style="text;html=1;strokeColor=none;fillColor=none;align=left;verticalAlign=top;spacingLeft=4;spacingRight=4;whiteSpace=wrap;overflow=hidden;rotatable=0;points=[[0,0.5],[1,0.5]];portConstraint=eastwest;" vertex="1" parent="z9h1_I_08Nq4GFGNyh7Q-76">
          <mxGeometry y="60" width="190" height="20" as="geometry" />
        </mxCell>
        <mxCell id="z9h1_I_08Nq4GFGNyh7Q-80" value="+ direBonjour()" style="text;html=1;strokeColor=none;fillColor=none;align=left;verticalAlign=top;spacingLeft=4;spacingRight=4;whiteSpace=wrap;overflow=hidden;rotatable=0;points=[[0,0.5],[1,0.5]];portConstraint=eastwest;" vertex="1" parent="z9h1_I_08Nq4GFGNyh7Q-76">
          <mxGeometry y="80" width="190" height="20" as="geometry" />
        </mxCell>
        <mxCell id="z9h1_I_08Nq4GFGNyh7Q-82" style="edgeStyle=orthogonalEdgeStyle;rounded=0;orthogonalLoop=1;jettySize=auto;html=1;entryX=0.823;entryY=1.029;entryDx=0;entryDy=0;entryPerimeter=0;endArrow=block;endFill=0;" edge="1" parent="1" source="z9h1_I_08Nq4GFGNyh7Q-72" target="z9h1_I_08Nq4GFGNyh7Q-21">
          <mxGeometry relative="1" as="geometry">
            <Array as="points">
              <mxPoint x="775" y="410" />
              <mxPoint x="1016" y="410" />
            </Array>
          </mxGeometry>
        </mxCell>
        <mxCell id="z9h1_I_08Nq4GFGNyh7Q-85" value="*" style="text;whiteSpace=wrap;html=1;" vertex="1" parent="1">
          <mxGeometry x="770" y="510" width="20" height="14" as="geometry" />
        </mxCell>
        <mxCell id="z9h1_I_08Nq4GFGNyh7Q-86" value="1" style="text;whiteSpace=wrap;html=1;" vertex="1" parent="1">
          <mxGeometry x="880" y="516" width="10" height="20" as="geometry" />
        </mxCell>
        <mxCell id="z9h1_I_08Nq4GFGNyh7Q-94" style="edgeStyle=orthogonalEdgeStyle;rounded=0;orthogonalLoop=1;jettySize=auto;html=1;endArrow=block;endFill=0;" edge="1" parent="1" source="z9h1_I_08Nq4GFGNyh7Q-89">
          <mxGeometry relative="1" as="geometry">
            <mxPoint x="745" y="510" as="targetPoint" />
          </mxGeometry>
        </mxCell>
        <mxCell id="z9h1_I_08Nq4GFGNyh7Q-101" style="edgeStyle=orthogonalEdgeStyle;rounded=0;orthogonalLoop=1;jettySize=auto;html=1;endArrow=block;endFill=0;dashed=1;" edge="1" parent="1" source="z9h1_I_08Nq4GFGNyh7Q-89" target="z9h1_I_08Nq4GFGNyh7Q-96">
          <mxGeometry relative="1" as="geometry" />
        </mxCell>
        <mxCell id="z9h1_I_08Nq4GFGNyh7Q-89" value="Traite" style="swimlane;html=1;fontStyle=1;align=center;verticalAlign=top;childLayout=stackLayout;horizontal=1;startSize=26;horizontalStack=0;resizeParent=1;resizeLast=0;collapsible=1;marginBottom=0;swimlaneFillColor=#ffffff;rounded=0;shadow=0;comic=0;labelBackgroundColor=none;strokeWidth=1;fillColor=none;fontFamily=Verdana;fontSize=12" vertex="1" parent="1">
          <mxGeometry x="650" y="590" width="190" height="60" as="geometry" />
        </mxCell>
        <mxCell id="z9h1_I_08Nq4GFGNyh7Q-91" value="" style="line;html=1;strokeWidth=1;fillColor=none;align=left;verticalAlign=middle;spacingTop=-1;spacingLeft=3;spacingRight=3;rotatable=0;labelPosition=right;points=[];portConstraint=eastwest;" vertex="1" parent="z9h1_I_08Nq4GFGNyh7Q-89">
          <mxGeometry y="26" width="190" height="8" as="geometry" />
        </mxCell>
        <mxCell id="z9h1_I_08Nq4GFGNyh7Q-95" value="+ extorquer(Commercant):" style="text;html=1;strokeColor=none;fillColor=none;align=left;verticalAlign=top;spacingLeft=4;spacingRight=4;whiteSpace=wrap;overflow=hidden;rotatable=0;points=[[0,0.5],[1,0.5]];portConstraint=eastwest;" vertex="1" parent="z9h1_I_08Nq4GFGNyh7Q-89">
          <mxGeometry y="34" width="190" height="20" as="geometry" />
        </mxCell>
        <mxCell id="z9h1_I_08Nq4GFGNyh7Q-96" value="&lt;p style=&quot;margin:0px;margin-top:4px;text-align:center;&quot;&gt;&lt;i&gt;&amp;lt;&amp;lt; interface &amp;gt;&amp;gt;&lt;/i&gt;&lt;/p&gt;&lt;p style=&quot;margin:0px;margin-top:4px;text-align:center;&quot;&gt;&lt;b&gt;Mechant&lt;/b&gt;&lt;br&gt;&lt;/p&gt;&lt;hr size=&quot;1&quot;&gt;&lt;p style=&quot;margin:0px;margin-left:4px;&quot;&gt;+ extorquer(Commercant)&lt;br&gt;&lt;/p&gt;" style="verticalAlign=top;align=left;overflow=fill;fontSize=12;fontFamily=Helvetica;html=1;rounded=0;shadow=0;comic=0;labelBackgroundColor=none;strokeWidth=1" vertex="1" parent="1">
          <mxGeometry x="330" y="630" width="190" height="82" as="geometry" />
        </mxCell>
        <mxCell id="z9h1_I_08Nq4GFGNyh7Q-99" style="edgeStyle=orthogonalEdgeStyle;rounded=0;orthogonalLoop=1;jettySize=auto;html=1;dashed=1;endArrow=block;endFill=0;" edge="1" parent="1" target="z9h1_I_08Nq4GFGNyh7Q-96">
          <mxGeometry relative="1" as="geometry">
            <mxPoint x="419.9966666666667" y="366" as="sourcePoint" />
            <mxPoint x="420.02000000000004" y="626.146" as="targetPoint" />
            <Array as="points">
              <mxPoint x="420" y="540" />
              <mxPoint x="420" y="540" />
            </Array>
          </mxGeometry>
        </mxCell>
        <mxCell id="z9h1_I_08Nq4GFGNyh7Q-110" style="edgeStyle=orthogonalEdgeStyle;rounded=0;orthogonalLoop=1;jettySize=auto;html=1;endArrow=open;endFill=0;" edge="1" parent="1" source="z9h1_I_08Nq4GFGNyh7Q-102">
          <mxGeometry relative="1" as="geometry">
            <mxPoint x="90" y="60" as="targetPoint" />
            <Array as="points">
              <mxPoint x="-655" y="280" />
              <mxPoint x="90" y="280" />
            </Array>
          </mxGeometry>
        </mxCell>
        <mxCell id="z9h1_I_08Nq4GFGNyh7Q-102" value="Auteur" style="swimlane;html=1;fontStyle=1;align=center;verticalAlign=top;childLayout=stackLayout;horizontal=1;startSize=32;horizontalStack=0;resizeParent=1;resizeLast=0;collapsible=1;marginBottom=0;swimlaneFillColor=#ffffff;rounded=0;shadow=0;comic=0;labelBackgroundColor=none;strokeWidth=1;fillColor=none;fontFamily=Verdana;fontSize=12" vertex="1" parent="1">
          <mxGeometry x="-720" y="125" width="130" height="58" as="geometry" />
        </mxCell>
        <mxCell id="z9h1_I_08Nq4GFGNyh7Q-106" style="edgeStyle=orthogonalEdgeStyle;rounded=0;orthogonalLoop=1;jettySize=auto;html=1;endArrow=none;endFill=0;" edge="1" parent="1" source="z9h1_I_08Nq4GFGNyh7Q-105" target="z9h1_I_08Nq4GFGNyh7Q-103">
          <mxGeometry relative="1" as="geometry" />
        </mxCell>
        <mxCell id="z9h1_I_08Nq4GFGNyh7Q-112" style="edgeStyle=orthogonalEdgeStyle;rounded=0;orthogonalLoop=1;jettySize=auto;html=1;endArrow=open;endFill=0;" edge="1" parent="1" source="z9h1_I_08Nq4GFGNyh7Q-105" target="78961159f06e98e8-17">
          <mxGeometry relative="1" as="geometry">
            <Array as="points">
              <mxPoint x="-90" y="30" />
              <mxPoint x="-90" y="30" />
            </Array>
          </mxGeometry>
        </mxCell>
        <mxCell id="z9h1_I_08Nq4GFGNyh7Q-105" value="Bibliotheque" style="swimlane;html=1;fontStyle=1;align=center;verticalAlign=top;childLayout=stackLayout;horizontal=1;startSize=32;horizontalStack=0;resizeParent=1;resizeLast=0;collapsible=1;marginBottom=0;swimlaneFillColor=#ffffff;rounded=0;shadow=0;comic=0;labelBackgroundColor=none;strokeWidth=1;fillColor=none;fontFamily=Verdana;fontSize=12" vertex="1" parent="1">
          <mxGeometry x="-570" y="24" width="130" height="52" as="geometry" />
        </mxCell>
        <mxCell id="z9h1_I_08Nq4GFGNyh7Q-108" value="*" style="edgeLabel;html=1;align=center;verticalAlign=middle;resizable=0;points=[];fontSize=15;labelBackgroundColor=none;" vertex="1" connectable="0" parent="1">
          <mxGeometry x="400.00004198776605" y="43.99523369143492" as="geometry">
            <mxPoint x="-846" y="46" as="offset" />
          </mxGeometry>
        </mxCell>
        <mxCell id="z9h1_I_08Nq4GFGNyh7Q-111" value="*" style="text;whiteSpace=wrap;html=1;fontSize=18;" vertex="1" parent="1">
          <mxGeometry y="10" width="20" height="14" as="geometry" />
        </mxCell>
        <mxCell id="z9h1_I_08Nq4GFGNyh7Q-113" value="*" style="text;whiteSpace=wrap;html=1;fontSize=18;" vertex="1" parent="1">
          <mxGeometry x="60" y="62" width="40" height="40" as="geometry" />
        </mxCell>
        <mxCell id="z9h1_I_08Nq4GFGNyh7Q-116" style="edgeStyle=orthogonalEdgeStyle;rounded=0;orthogonalLoop=1;jettySize=auto;html=1;entryX=0;entryY=0.75;entryDx=0;entryDy=0;endArrow=open;endFill=0;" edge="1" parent="1" source="z9h1_I_08Nq4GFGNyh7Q-103" target="78961159f06e98e8-17">
          <mxGeometry relative="1" as="geometry">
            <Array as="points">
              <mxPoint x="-460" y="100" />
              <mxPoint x="-90" y="100" />
              <mxPoint x="-90" y="49" />
            </Array>
          </mxGeometry>
        </mxCell>
        <mxCell id="z9h1_I_08Nq4GFGNyh7Q-103" value="Lecteur" style="swimlane;html=1;fontStyle=1;align=center;verticalAlign=top;childLayout=stackLayout;horizontal=1;startSize=32;horizontalStack=0;resizeParent=1;resizeLast=0;collapsible=1;marginBottom=0;swimlaneFillColor=#ffffff;rounded=0;shadow=0;comic=0;labelBackgroundColor=none;strokeWidth=1;fillColor=none;fontFamily=Verdana;fontSize=12" vertex="1" parent="1">
          <mxGeometry x="-540" y="158" width="130" height="52" as="geometry" />
        </mxCell>
        <mxCell id="z9h1_I_08Nq4GFGNyh7Q-104" style="edgeStyle=orthogonalEdgeStyle;rounded=0;orthogonalLoop=1;jettySize=auto;html=1;endArrow=block;endFill=0;" edge="1" parent="1" source="z9h1_I_08Nq4GFGNyh7Q-102" target="z9h1_I_08Nq4GFGNyh7Q-103">
          <mxGeometry relative="1" as="geometry" />
        </mxCell>
        <mxCell id="z9h1_I_08Nq4GFGNyh7Q-114" value="*" style="text;whiteSpace=wrap;html=1;fontSize=20;" vertex="1" parent="1">
          <mxGeometry x="10" y="44" width="40" height="40" as="geometry" />
        </mxCell>
        <mxCell id="z9h1_I_08Nq4GFGNyh7Q-119" style="edgeStyle=orthogonalEdgeStyle;rounded=0;orthogonalLoop=1;jettySize=auto;html=1;endArrow=none;endFill=0;dashed=1;" edge="1" parent="1" source="z9h1_I_08Nq4GFGNyh7Q-117">
          <mxGeometry relative="1" as="geometry">
            <mxPoint x="-190" y="100" as="targetPoint" />
          </mxGeometry>
        </mxCell>
        <mxCell id="z9h1_I_08Nq4GFGNyh7Q-117" value="Lecture" style="swimlane;html=1;fontStyle=1;align=center;verticalAlign=top;childLayout=stackLayout;horizontal=1;startSize=32;horizontalStack=0;resizeParent=1;resizeLast=0;collapsible=1;marginBottom=0;swimlaneFillColor=#ffffff;rounded=0;shadow=0;comic=0;labelBackgroundColor=none;strokeWidth=1;fillColor=none;fontFamily=Verdana;fontSize=12" vertex="1" parent="1">
          <mxGeometry x="-270" y="128" width="160" height="112" as="geometry" />
        </mxCell>
        <mxCell id="z9h1_I_08Nq4GFGNyh7Q-118" value="- note: int" style="text;html=1;strokeColor=none;fillColor=none;align=left;verticalAlign=top;spacingLeft=4;spacingRight=4;whiteSpace=wrap;overflow=hidden;rotatable=0;points=[[0,0.5],[1,0.5]];portConstraint=eastwest;" vertex="1" parent="z9h1_I_08Nq4GFGNyh7Q-117">
          <mxGeometry y="32" width="160" height="18" as="geometry" />
        </mxCell>
        <mxCell id="z9h1_I_08Nq4GFGNyh7Q-120" value="- commentaire: string" style="text;html=1;strokeColor=none;fillColor=none;align=left;verticalAlign=top;spacingLeft=4;spacingRight=4;whiteSpace=wrap;overflow=hidden;rotatable=0;points=[[0,0.5],[1,0.5]];portConstraint=eastwest;" vertex="1" parent="z9h1_I_08Nq4GFGNyh7Q-117">
          <mxGeometry y="50" width="160" height="14" as="geometry" />
        </mxCell>
      </root>
    </mxGraphModel>
  </diagram>
</mxfile>
